# xmcd CD database file
#
# Track frame offsets:
#	150
#	66113
#	92776
#	125960
#	162930
#	189518
#	209387
#	236883
#	258651
#	291090
#
# Disc length: 4207 seconds
#
# Revision: 0
# Processed by: cddbd v1.5.2PL0 Copyright (c) Steve Scherf et al.
# Submitted via: CDex 1.51
#
DISCID=9d106d0a
DTITLE=Herbie Mann - Flute Soufflé and Yardbird Suite
DYEAR=1957
DGENRE=Jazz
TTITLE0=Tel Aviv
TTITLE1=Somewhere Else
TTITLE2=Let's March
TTITLE3=Chasin' the Bird
TTITLE4=Yardbird Suite
TTITLE5=Here's that Man
TTITLE6=One for Tubby
TTITLE7=Squire's Parlor
TTITLE8=Who Knew
TTITLE9=Opicana
EXTD=YEAR: 1957
EXTT0=
EXTT1=
EXTT2=
EXTT3=
EXTT4=
EXTT5=
EXTT6=
EXTT7=
EXTT8=
EXTT9=
PLAYORDER=
